<?xml version="1.0" encoding="UTF-8" standalone="no"?>
<svg width="257px" height="262px" viewBox="0 0 257 262" version="1.1" xmlns="http://www.w3.org/2000/svg" xmlns:xlink="http://www.w3.org/1999/xlink">
    <!-- Generator: Sketch 42 (36781) - http://www.bohemiancoding.com/sketch -->
    <title>Typo</title>
    <desc>Created with Sketch.</desc>
    <defs></defs>
    <g id="Page-1" stroke="none" stroke-width="1" fill="none" fill-rule="evenodd">
        <g id="planb" transform="translate(-542.000000, -59.000000)" fill-rule="nonzero">
            <g id="Typo" transform="translate(542.000000, 59.000000)">
                <path d="M76.63,3.362 C76.261,3.362 75.914,3.362 75.57,3.385 L75.57,8.57 C75.869,8.617 76.168,8.64 76.446,8.64 C78.289,8.617 79.557,7.603 79.557,5.92 C79.557,4.353 78.658,3.362 76.63,3.362 M76.583,11.129 C76.307,11.129 75.938,11.129 75.57,11.083 L75.57,16.568 L72.573,16.568 L72.573,1.011 C73.841,0.942 75.224,0.919 76.745,0.919 C80.571,0.919 82.668,2.693 82.668,5.736 C82.668,8.755 80.363,11.129 76.583,11.129" id="Shape" fill="#FFFFFF"></path>
                <polygon id="Shape" fill="#FFFFFF" points="88.037 16.568 88.037 1.011 91.033 1.011 91.033 13.941 96.081 13.941 96.081 16.568"></polygon>
                <path d="M107.51,6.934 C107.211,6.081 106.981,5.32 106.796,4.445 L106.773,4.445 C106.588,5.251 106.335,6.15 106.035,7.049 L104.63,11.014 L108.962,11.014 L107.51,6.934 L107.51,6.934 Z M110.83,16.568 L109.746,13.388 L103.869,13.388 L102.785,16.568 L99.766,16.568 L105.206,1.011 L108.594,1.011 L114.148,16.568 L110.83,16.568 L110.83,16.568 Z" id="Shape" fill="#FFFFFF"></path>
                <path d="M128.021,16.568 L123.458,8.709 C122.767,7.534 122.236,6.381 121.775,5.367 C121.868,6.704 121.914,9.147 121.914,11.014 L121.914,16.568 L119.01,16.568 L119.01,1.011 L122.905,1.011 L127.238,8.433 C127.952,9.631 128.574,10.922 129.15,12.097 C129.036,10.53 128.989,7.764 128.989,5.851 L128.989,1.011 L131.894,1.011 L131.894,16.568 L128.021,16.568 Z" id="Shape" fill="#FFFFFF"></path>
                <path d="M150.905,9.7 C150.674,9.7 149.914,9.7 149.591,9.723 L149.591,14.079 C149.961,14.126 150.536,14.171 151.227,14.171 C153.186,14.171 154.177,13.249 154.177,11.843 C154.177,10.323 152.864,9.7 150.905,9.7 M151.342,3.339 C150.72,3.339 150.121,3.362 149.591,3.384 L149.591,7.441 C149.961,7.464 150.329,7.464 150.813,7.464 C152.864,7.464 153.924,6.635 153.924,5.252 C153.924,4.099 153.233,3.339 151.342,3.339 M151.135,16.614 C150.19,16.614 148.555,16.569 146.594,16.569 L146.594,1.034 C147.909,0.965 149.937,0.919 151.85,0.919 C155.214,0.919 157.082,2.279 157.082,4.768 C157.082,6.312 156.091,7.672 154.615,8.248 L154.615,8.294 C156.46,8.686 157.382,10.207 157.382,11.774 C157.382,14.033 155.837,16.614 151.135,16.614" id="Shape" fill="#FFFFFF"></path>
                <path d="M16.184,63.214 C15.723,63.214 13.748,63.214 13.023,63.28 L13.023,71.379 C13.813,71.445 15.13,71.511 16.184,71.511 C19.476,71.511 21.715,70.062 21.715,67.296 C21.715,64.992 20.003,63.214 16.184,63.214 M16.513,46.488 C15.13,46.488 14.077,46.554 13.023,46.62 L13.023,54.127 C13.748,54.192 14.604,54.192 15.658,54.192 C19.476,54.192 21.254,52.546 21.254,49.978 C21.254,47.673 19.411,46.488 16.513,46.488 M16.118,81.52 C13.419,81.52 8.282,81.388 0.775,81.388 L0.775,37.006 C5.253,36.743 12.957,36.611 18.489,36.611 C28.103,36.611 34.293,40.298 34.293,48.069 C34.293,52.02 31.987,55.575 28.564,57.353 L28.564,57.551 C32.382,58.868 34.95,62.885 34.95,67.165 C34.95,75.199 28.826,81.52 16.118,81.52" id="Shape" fill="#FFFFFF"></path>
                <path d="M59.774,58.934 C58.984,56.366 58.194,53.995 57.733,51.23 L57.601,51.23 C57.206,53.797 56.351,56.761 55.429,59.658 L53.913,64.531 L61.553,64.531 L59.774,58.934 L59.774,58.934 Z M66.952,81.388 L64.647,74.145 L50.95,74.145 L48.711,81.388 L36.596,81.388 L51.083,36.94 L65.109,36.94 L80.32,81.388 L66.952,81.388 L66.952,81.388 Z" id="Shape" fill="#FFFFFF"></path>
                <path d="M100.665,66.045 L100.665,81.388 L88.416,81.388 L88.416,66.111 L74.523,36.94 L87.823,36.94 L91.972,46.554 C93.091,49.122 93.948,51.361 94.606,53.336 L94.738,53.336 C95.528,50.966 96.714,48.332 97.965,45.566 L101.783,36.94 L114.756,36.94 L100.665,66.045 L100.665,66.045 Z" id="Shape" fill="#FFFFFF"></path>
                <polygon id="Shape" fill="#FFFFFF" points="118.77 81.388 118.77 36.94 144.78 36.94 144.78 47.344 131.018 47.344 131.018 53.6 144.056 53.6 144.056 63.609 131.018 63.609 131.018 70.787 144.78 70.787 144.78 81.388"></polygon>
                <path d="M166.243,46.686 C165.454,46.686 164.335,46.752 163.939,46.817 L163.939,56.365 C164.4,56.432 165.323,56.497 165.982,56.497 C169.339,56.497 171.644,54.719 171.644,51.427 C171.644,48.793 170.261,46.686 166.243,46.686 L166.243,46.686 Z M172.764,81.388 L164.4,65.189 L163.939,65.189 L163.939,81.388 L151.692,81.388 L151.692,36.94 C155.84,36.676 161.305,36.611 166.902,36.611 C178.228,36.611 184.55,40.627 184.55,50.505 C184.55,55.773 181.587,60.843 176.451,62.687 C177.636,64.465 178.69,66.111 179.678,67.823 L187.644,81.388 L172.764,81.388 Z" id="Shape" fill="#FFFFFF"></path>
                <path d="M214.905,81.388 L207.464,66.177 C205.752,62.687 204.172,59.131 203.051,56.168 C203.315,58.802 203.381,60.316 203.381,63.214 L203.381,81.388 L191.594,81.388 L191.594,36.94 L207.266,36.94 L213.719,50.175 C215.629,54.127 217.604,58.144 219.12,61.699 C218.79,58.671 218.657,55.246 218.657,52.48 L218.657,36.94 L230.445,36.94 L230.445,81.388 L214.905,81.388 Z" id="Shape" fill="#FFFFFF"></path>
                <path d="M56.317,135.382 L41.436,135.382 L37.748,118.721 C37.024,115.494 36.497,111.61 36.036,107.395 L35.97,107.395 C35.707,111.28 35.114,114.771 34.324,118.26 L30.439,135.382 L16.545,135.382 L5.878,90.933 L18.85,90.933 L22.932,109.107 C23.591,111.939 24.051,115.429 24.315,118.787 L24.381,118.787 C24.776,115.561 25.237,112.466 26.027,109.305 L30.702,90.933 L43.015,90.933 L47.494,108.646 C48.152,111.214 48.877,114.704 49.272,118.392 L49.338,118.392 C49.865,114.573 50.457,111.149 51.115,108.053 L54.803,90.933 L67.117,90.933 L56.317,135.382 L56.317,135.382 Z" id="Shape" fill="#FFFFFF"></path>
                <polygon id="Shape" fill="#FFFFFF" points="71.788 135.382 71.788 90.933 97.8 90.933 97.8 101.337 84.036 101.337 84.036 107.593 97.074 107.593 97.074 117.601 84.036 117.601 84.036 124.779 97.8 124.779 97.8 135.382"></polygon>
                <rect id="Rectangle-path" fill="#FFFFFF" x="104.71" y="90.933" width="12.248" height="44.449"></rect>
                <polygon id="Shape" fill="#FFFFFF" points="143.43 101.469 143.43 135.382 131.181 135.382 131.181 101.469 121.568 101.469 121.568 90.933 153.044 90.933 153.044 101.469"></polygon>
                <polygon id="Shape" fill="#FFFFFF" points="157.652 135.382 157.652 90.933 183.662 90.933 183.662 101.337 169.899 101.337 169.899 107.593 182.938 107.593 182.938 117.601 169.899 117.601 169.899 124.779 183.662 124.779 183.662 135.382"></polygon>
                <path d="M205.126,100.679 C204.336,100.679 203.217,100.744 202.822,100.811 L202.822,110.359 C203.283,110.424 204.205,110.49 204.863,110.49 C208.221,110.49 210.526,108.712 210.526,105.419 C210.526,102.786 209.143,100.679 205.126,100.679 L205.126,100.679 Z M211.646,135.382 L203.283,119.182 L202.822,119.182 L202.822,135.382 L190.574,135.382 L190.574,90.933 C194.722,90.67 200.187,90.604 205.784,90.604 C217.11,90.604 223.433,94.621 223.433,104.498 C223.433,109.766 220.47,114.836 215.333,116.68 C216.519,118.458 217.572,120.104 218.559,121.817 L226.527,135.382 L211.646,135.382 L211.646,135.382 Z" id="Shape" fill="#FFFFFF"></path>
                <path d="M87.724,190.23 C84.695,190.23 81.534,189.968 78.571,189.31 L79.229,178.114 C81.666,178.971 85.354,179.695 88.711,179.695 C91.675,179.695 93.584,178.443 93.584,176.402 C93.584,169.949 76.99,173.769 76.99,158.557 C76.99,149.732 83.773,144.07 95.495,144.07 C97.733,144.07 100.828,144.335 103.593,144.794 L102.935,155.397 C100.367,154.673 97.733,154.211 95.033,154.211 C91.609,154.211 90.161,155.595 90.161,157.307 C90.161,162.903 106.754,160.73 106.754,174.624 C106.754,183.515 99.577,190.23 87.724,190.23" id="Shape" fill="#00B5CD"></path>
                <path d="M132.763,155.198 C128.482,155.198 124.136,158.491 124.136,166.853 C124.136,174.427 126.574,179.037 132.5,179.037 C136.32,179.037 141.454,176.402 141.454,166.986 C141.454,159.216 138.624,155.198 132.763,155.198 M131.907,190.297 C117.946,190.297 111.098,181.868 111.098,167.776 C111.098,153.421 121.238,144.005 133.684,144.005 C145.274,144.005 154.494,150.26 154.494,166.393 C154.494,180.881 144.55,190.297 131.907,190.297" id="Shape" fill="#00B5CD"></path>
                <path d="M62.613,179.018 C70.891,178.142 79.117,176.621 87.343,175.367 C98.631,173.647 109.989,172.379 121.247,170.467 C130.066,168.968 138.775,166.966 147.489,164.963 C153.907,163.488 160.357,162.142 166.958,161.882 C169.194,159.329 171.429,156.777 173.666,154.224 C170.178,155.113 167.204,157.274 163.917,158.688 C161.773,159.611 159.878,161.638 158.501,163.464 C158.121,163.966 156.291,166.926 158.388,166.023 C161.209,164.809 163.979,162.641 166.958,161.882 C169.028,161.355 170.805,159.476 172.164,157.926 C172.353,157.709 175.217,154.163 173.666,154.224 C167.294,154.474 161.068,155.742 154.867,157.151 C146.273,159.104 137.702,161.087 129.02,162.622 C117.767,164.612 106.39,165.843 95.094,167.55 C86.519,168.846 77.948,170.447 69.32,171.359 C67.355,171.567 65.307,173.954 64.114,175.316 C63.963,175.49 61.079,179.181 62.613,179.018" id="Shape" fill="#FFFFFF"></path>
                <path d="M189.981,192.374 C190.075,192.119 190.159,191.863 190.262,191.61 C190.838,190.197 190.885,191.127 189.981,192.374 M159.118,206.075 C159.495,204.291 160.245,202.51 161.125,200.918 C161.342,200.526 161.593,200.088 161.872,199.709 C164.054,198.365 166.334,199.673 167.557,201.567 C170.697,206.439 166.375,213.676 163.792,217.765 C162.873,219.218 161.86,220.609 160.792,221.958 C158.071,217.437 158.135,210.726 159.118,206.075 M124.946,221.829 C126.432,215.476 128.416,208.41 132.329,203.054 C132.416,203.012 132.524,202.96 132.683,202.887 C133.666,202.436 134.726,202.286 135.795,202.414 C137.828,202.657 138.056,205.327 137.986,206.851 C137.745,212.173 134.559,217.528 129.548,219.382 C128.772,219.67 126.325,221.459 124.62,223.272 C124.728,222.79 124.835,222.309 124.946,221.829 M111.625,238.15 C111.827,238.028 111.811,238.119 111.625,238.15 M54.43,227.499 C55.194,223.555 57.348,216.896 62.378,217.228 C67.688,217.579 65.996,226.778 64.962,229.789 C63.439,234.235 60.914,238.539 57.866,242.219 C53.759,238.895 53.477,232.415 54.43,227.499 M20.758,250.702 C20.056,252.036 19.297,253.339 18.486,254.609 C18.069,254.594 17.711,254.446 17.321,254.187 C15.145,252.738 14.384,249.087 13.89,246.817 C12.612,240.942 13.449,234.679 15.638,229.137 C16.373,227.276 17.326,225.363 18.601,223.833 C18.014,224.614 19.64,223.572 20.554,223.542 C24.619,223.403 25.833,228.961 26.268,232.411 C26.208,234.271 26.226,236.141 26.352,237.995 C24.721,242.339 22.905,246.62 20.758,250.702 M19.127,254.547 C19.154,254.53 19.173,254.518 19.202,254.498 C19.127,254.549 19.303,254.51 19.127,254.547 M17.542,255.922 C17.303,256.179 17.057,256.422 17.542,255.922 M234.109,200.152 C232.274,201.535 230.272,203.424 229.334,205.568 C227.719,209.259 225.21,214.554 222.124,216.886 C220.597,218.039 218.528,217.105 217.353,215.995 C215.449,214.193 215.807,211.266 216.058,208.907 C216.71,202.725 219.171,196.574 218.633,190.3 C218.386,187.405 216.431,182.861 213.115,182.506 C209.088,182.076 204.593,187.917 202.524,190.626 C201.217,192.338 200.101,194.194 199.1,196.117 C199.031,192.159 198.089,187.993 194.207,187.129 C192.089,186.658 189.797,188.715 188.366,189.947 C185.942,192.036 183.942,194.651 182.732,197.617 C180.737,202.507 180.379,208.096 179.556,213.264 C178.9,217.384 177.651,222.079 174.403,224.531 C171.025,227.082 166.181,227.274 162.928,224.518 C162.779,224.393 162.648,224.248 162.509,224.114 C163.071,223.457 163.626,222.799 164.169,222.139 C168.451,216.942 172.486,211.263 174.862,204.914 C176.348,200.942 177.442,194.225 172.658,191.948 C167.426,189.459 160.601,196.998 157.826,200.363 C152.872,206.371 150.358,213.357 151.069,221.159 C151.321,223.924 152.011,226.966 153.471,229.422 C149.491,231.711 145.346,232.618 141.06,230.305 C137.566,228.42 134.848,225.075 132.398,221.836 C138.014,217.308 142.541,210.889 144.696,204.54 C145.583,201.923 146.436,198.32 144.659,195.872 C142.721,193.205 138.122,195.472 136.068,196.674 C129.768,200.36 125.405,206.611 122.345,213.271 C122.512,202.982 124.165,192.92 127.672,183.203 C128.429,181.105 125.705,182.87 125.113,183.316 C123.369,184.63 121.106,186.607 120.338,188.733 C116.718,198.758 114.913,209.078 114.689,219.722 C114.577,225.021 114.87,230.324 114.939,235.623 C113.881,235.924 112.31,237.396 111.528,238.159 C111.425,238.163 111.291,238.147 111.128,238.089 C110.41,237.834 110.058,236.897 109.898,236.232 C109.206,233.366 109.577,230.145 109.751,227.241 C110.101,221.426 111.903,213.616 109.328,208.1 C108.077,205.423 104.735,206.55 102.786,207.615 C98.418,210.002 94.964,214.664 92.575,218.916 C91.012,221.698 89.684,224.613 88.518,227.605 C88.346,221.886 88.589,216.16 88.864,210.353 C88.938,208.802 85.373,211.67 85.163,211.855 C83.865,212.991 81.315,215.143 81.206,217.061 C80.764,224.748 78.501,232.699 74.505,239.299 C71.783,243.795 65.157,245.451 60.36,243.64 C66.742,236.707 72.052,228.162 73.574,219.45 C74.26,215.523 73.228,209.405 68.192,209.554 C62.228,209.73 56.513,216.636 53.183,220.811 C48.261,226.982 44.951,235.525 46.796,243.431 C47.306,245.613 48.315,247.385 49.659,248.744 C48.007,249.31 46.23,249.484 44.332,249.084 C40.653,248.31 38.039,245.24 36.497,242 C34.993,238.842 34.238,235.316 33.949,231.674 C36.926,223.811 39.384,215.735 41.444,207.59 C42.915,201.775 45.154,194.721 44.284,188.641 C43.9,185.942 42.192,186.36 40.269,187.809 C37.077,190.215 34.877,193.378 33.38,197.032 C30.916,203.044 29.288,209.524 28.148,216.005 C27.983,215.97 27.825,215.925 27.65,215.901 C22.74,215.253 17.448,221.145 14.659,224.349 C6.72,233.467 2.804,247.514 7.897,258.949 C11.05,266.029 17.8,259.377 21.043,255.899 C23.732,253.016 25.899,249.625 27.757,246.051 C28.249,247.656 28.876,249.209 29.672,250.681 C31.468,253.994 34.421,256.069 38.078,256.838 C43.037,257.883 48.021,254.467 51.726,251.594 C52.038,251.353 52.35,251.106 52.661,250.856 C54.979,251.935 57.735,252.233 60.569,251.682 C68.952,250.054 75.936,242.776 80.554,236.046 C80.674,235.871 80.787,235.688 80.903,235.51 C81.076,239.747 81.486,243.981 82.301,248.242 C82.591,249.759 85.594,247.098 86.003,246.739 C87.563,245.374 89.415,243.607 89.96,241.534 C92.317,232.563 94.685,223.128 99.107,214.913 C99.271,214.61 99.446,214.314 99.622,214.018 C100.308,214.033 100.988,214.371 101.439,214.867 C102.969,216.548 102.738,219.816 102.747,221.896 C102.776,228.433 101.432,235.019 102.025,241.55 C102.746,249.502 109.69,243.421 112.902,240.352 C113.159,240.106 114.174,239.109 114.952,238.08 C114.947,239.718 114.911,241.355 114.825,242.99 C114.743,243.952 114.672,244.913 114.624,245.871 C114.546,247.422 118.117,244.552 118.326,244.369 C119.668,243.193 122.105,241.116 122.283,239.164 C122.361,238.308 122.416,237.452 122.464,236.595 C122.724,233.596 123.161,230.609 123.717,227.645 C126.834,231.763 130.158,236.184 134.912,238.411 C140.146,240.861 145.781,238.272 150.275,235.471 C150.789,235.15 151.298,234.789 151.79,234.397 C152.964,233.54 154.101,232.622 155.202,231.652 C156.099,232.529 157.17,233.233 158.445,233.685 C163.035,235.31 167.998,232.81 171.676,230.198 C177.181,226.287 181.929,220.854 184.947,214.807 C186.914,210.867 187.266,206.263 187.916,201.964 C188.249,199.76 188.617,197.561 189.101,195.384 C192.543,197.801 191.326,206.634 191.001,209.566 C190.212,216.674 188.412,223.627 187.533,230.723 C187.344,232.25 191.072,229.363 191.235,229.22 C192.739,227.903 194.749,226.065 195.192,224.014 C197.11,215.147 199.82,206.34 203.148,197.906 C204.022,195.691 204.984,193.512 206.055,191.386 C206.246,191.004 206.454,190.632 206.669,190.261 C206.919,190.305 207.206,190.403 207.514,190.597 C209.047,191.564 209.875,193.599 210.529,195.191 C211.535,197.641 210.999,200.658 210.625,203.188 C210.119,206.618 209.296,209.995 208.713,213.411 C207.983,217.694 207.375,223.823 212.864,224.97 C215.127,225.442 217.681,223.725 219.416,222.528 C222.363,220.497 224.928,217.869 227.22,215.137 C231.019,210.606 234.294,205.463 236.667,200.039 C237.585,197.943 234.603,199.78 234.109,200.152" id="Shape" fill="#FFFFFF"></path>
                <path d="M252.79,132.384 C251.441,133.565 249.02,135.633 248.833,137.59 C247.119,155.525 243.855,173.257 240.614,190.965 C240.34,192.461 244.181,189.581 244.315,189.464 C245.778,188.182 247.899,186.287 248.272,184.258 C251.515,166.549 254.777,148.817 256.49,130.882 C256.638,129.343 252.968,132.227 252.79,132.384" id="Shape" fill="#FFFFFF"></path>
                <path d="M246.215,208.606 C245.812,208.203 244.771,208.895 244.492,209.066 C242.517,210.277 240.321,212.264 239.224,214.334 C238.127,216.405 237.721,218.618 236.91,220.798 C236.126,222.896 238.893,221.119 239.469,220.685 C241.227,219.36 243.451,217.398 244.244,215.268 C244.626,214.244 244.922,213.202 245.209,212.147 C245.293,211.837 245.376,211.528 245.47,211.219 C245.529,211.03 245.593,210.842 245.662,210.656 C245.681,210.6 245.903,210.112 245.886,210.107 C246.134,209.689 246.555,208.947 246.215,208.606" id="Shape" fill="#FFFFFF"></path>
            </g>
        </g>
    </g>
</svg>