<?xml version="1.0" encoding="UTF-8" standalone="no"?>
<svg width="50px" height="90px" viewBox="0 0 50 90" version="1.1" xmlns="http://www.w3.org/2000/svg" xmlns:xlink="http://www.w3.org/1999/xlink">
    <!-- Generator: Sketch 42 (36781) - http://www.bohemiancoding.com/sketch -->
    <title>scroll_mobile</title>
    <desc>Created with Sketch.</desc>
    <defs></defs>
    <g id="Page-1" stroke="none" stroke-width="1" fill="none" fill-rule="evenodd">
        <g id="scroll_mobile" fill-rule="nonzero" fill="#FFFFFF">
            <path d="M25.404,28.331 C25.287,28.315 25.163,28.3 25.046,28.308 C25.069,28.3 25.093,28.3 25.116,28.3 C25.218,28.3 25.311,28.308 25.404,28.331 Z" id="Shape"></path>
            <g id="Group">
                <g id="Shape">
                    <path d="M48.334,0 L1.666,0 C0.803,0 0.111,0.692 0.111,1.555 L0.111,88.446 C0.111,89.301 0.803,90.001 1.666,90.001 L48.333,90.001 C49.196,90.001 49.888,89.301 49.888,88.446 L49.888,1.555 C49.888,0.692 49.196,0 48.334,0 Z M46.779,86.891 L3.221,86.891 L3.221,75.395 L46.779,75.395 L46.779,86.891 Z M46.779,72.286 L3.221,72.286 L3.221,16.043 L46.779,16.043 L46.779,72.286 Z M46.779,12.934 L3.221,12.934 L3.221,3.109 L46.779,3.109 L46.779,12.934 Z"></path>
                    <path d="M32.524,49.963 C33.13,50.569 33.13,51.556 32.524,52.163 L26.321,58.366 L26.22,58.475 C26.158,58.537 26.096,58.592 26.026,58.638 C26.003,58.654 25.979,58.669 25.956,58.685 C25.785,58.794 25.598,58.864 25.412,58.895 C25.319,58.918 25.218,58.926 25.116,58.926 C25.015,58.926 24.922,58.918 24.821,58.895 C24.619,58.856 24.417,58.778 24.238,58.654 C24.16,58.607 24.09,58.545 24.021,58.475 L17.709,52.163 C17.103,51.557 17.103,50.57 17.709,49.963 C18.315,49.357 19.302,49.357 19.909,49.963 L23.562,53.616 L23.562,33.609 L19.909,37.262 C19.303,37.868 18.315,37.868 17.709,37.262 C17.103,36.656 17.103,35.676 17.709,35.062 L24.021,28.758 C24.083,28.696 24.153,28.641 24.223,28.587 C24.231,28.579 24.239,28.579 24.247,28.571 C24.286,28.548 24.317,28.524 24.348,28.509 C24.41,28.47 24.472,28.439 24.534,28.416 C24.674,28.362 24.822,28.323 24.969,28.315 C24.993,28.307 25.024,28.307 25.047,28.307 C25.164,28.299 25.288,28.315 25.405,28.33 C25.498,28.346 25.591,28.377 25.685,28.408 C25.74,28.431 25.802,28.454 25.856,28.493 C25.926,28.524 25.988,28.563 26.05,28.61 C26.112,28.657 26.167,28.703 26.221,28.758 L26.322,28.867 L32.525,35.062 C33.131,35.676 33.131,36.655 32.525,37.262 C32.222,37.565 31.826,37.721 31.429,37.721 C31.032,37.721 30.636,37.565 30.325,37.262 L26.672,33.609 L26.672,53.616 L30.325,49.963 C30.938,49.357 31.918,49.357 32.524,49.963 Z"></path>
                </g>
                <circle id="Oval" cx="25" cy="81.059" r="2.828"></circle>
            </g>
        </g>
    </g>
</svg>
