<?xml version="1.0" encoding="UTF-8" standalone="no"?>

<svg width="42px" height="122px" viewBox="-1 0 42 122" version="1.1" xmlns="http://www.w3.org/2000/svg" xmlns:xlink="http://www.w3.org/1999/xlink">
    <!-- Generator: Sketch 42 (36781) - http://www.bohemiancoding.com/sketch -->
    <desc>Created with Sketch.</desc>
    <defs></defs>
    <g id="scroll_mouse" stroke="none" stroke-width="1" fill="none" fill-rule="evenodd">
        <ellipse id="Oval" fill="#FFFFFF" fill-rule="nonzero" cx="20.3225806" cy="17.6222222" rx="4.06451613" ry="4.06666667"></ellipse>
        <path d="M20.3225806,0.677777778 C9.09909677,0.677777778 0,9.78304444 0,21.0138222 L0,54.8972889 C0,66.1280667 9.09909677,75.2333333 20.3225806,75.2333333 C31.5460645,75.2333333 40.6451613,66.1280667 40.6451613,54.8972889 L40.6451613,21.0138222 C40.6451613,9.78304444 31.5460645,0.677777778 20.3225806,0.677777778 Z M37.9354839,54.8972889 C37.9354839,64.6152667 30.0340645,72.5222222 20.3225806,72.5222222 C10.6110968,72.5222222 2.70967742,64.6152667 2.70967742,54.8972889 L2.70967742,21.0138222 C2.70967742,11.2958444 10.6110968,3.38888889 20.3225806,3.38888889 C30.0340645,3.38888889 37.9354839,11.2958444 37.9354839,21.0138222 L37.9354839,54.8972889 Z" id="Shape" fill="#FFFFFF" fill-rule="nonzero"></path>
        <path d="M38.3324516,81.0527333 L20.3225806,99.0721333 L2.31270968,81.0527333 C1.78296774,80.5227111 0.926709677,80.5227111 0.396967742,81.0527333 C-0.132774194,81.5827556 -0.132774194,82.4394667 0.396967742,82.9694889 L19.3647097,101.947267 C19.6289032,102.2116 19.9757419,102.344444 20.3225806,102.344444 C20.6694194,102.344444 21.0162581,102.2116 21.2804516,101.947267 L40.2481935,82.9694889 C40.7779355,82.4394667 40.7779355,81.5827556 40.2481935,81.0527333 C39.7184516,80.5227111 38.8621935,80.5227111 38.3324516,81.0527333 Z" id="Shape" fill="#FFFFFF" fill-rule="nonzero"></path>
        <path d="M38.3324516,100.030511 L20.3225806,118.049911 L2.31270968,100.030511 C1.78296774,99.5004889 0.926709677,99.5004889 0.396967742,100.030511 C-0.132774194,100.560533 -0.132774194,101.417244 0.396967742,101.947267 L19.3647097,120.925044 C19.6289032,121.189378 19.9757419,121.322222 20.3225806,121.322222 C20.6694194,121.322222 21.0162581,121.189378 21.2804516,120.925044 L40.2481935,101.947267 C40.7779355,101.417244 40.7779355,100.560533 40.2481935,100.030511 C39.7184516,99.5004889 38.8621935,99.5004889 38.3324516,100.030511 Z" id="Shape" fill="#FFFFFF" fill-rule="nonzero"></path>
    </g>
</svg>
